<?xml version="1.0" encoding="utf-8"?>
<!-- Generator: Adobe Illustrator 22.1.0, SVG Export Plug-In . SVG Version: 6.00 Build 0)  -->
<svg version="1.1" id="Layer_1" xmlns="http://www.w3.org/2000/svg" xmlns:xlink="http://www.w3.org/1999/xlink" x="0px" y="0px"
	 viewBox="0 0 600 600" style="enable-background:new 0 0 600 600;" xml:space="preserve">
<style type="text/css">
	.st0{fill:#7DB7B1;}
</style>
<g>
	<g>
		<path d="M92.1,285.2c-1,1.7-1.7,8.5-1.7,20.5c0,20.3,0.8,54.1,2.3,74.5c-0.4-0.8-7.3-18.9-20.7-54.3c-7.7-20.1-11-29.5-11.6-30.3
			c-0.8-1.7-11.6-2.5-13.7-2.5H46c-3.9,0.2-4.1,3.5-4.1,12.7c0,13.3,2.1,42.5,6.2,87.9l0.4,4.6c0.2,2.5,11.8,3.9,14.3,3.9
			c1.9,0,2.9-0.8,3.5-2.3c0.4-1.5,0-1.9,0-3.3c-2.7-24.1-7.3-67.4-7.3-78.4c4.8,14.5,13.5,35.9,26.5,64.3c1.5,3.3,3.1,6,5,8.1
			c3.3,4.1,10.8,3.3,10.8-7.5c0-11.6,0.2-40.6,0-46.9c-0.4-14.3-0.8-32.8,2.1-48.9C104.3,282.9,95.4,279.8,92.1,285.2z"/>
		<path d="M452.3,369.4c-2.1,0-6,1.9-6.6,2.1c-11.8-20.7-21.2-36.3-22.8-50.2c-1.2-11,5.4-18.3,9.7-17.8
			c6.4,0.6,13.9,12.4,12.7,23.6c-0.4,3.9-3.5,7.5,4.1,7.5c2.9,0,4.1-4.8,4.4-6c0.8-6.4-0.4-12-2.7-17.4c-4.6-11-13.7-15.3-20.1-16
			c-3.9-0.4-7.7,0.4-10.8,2.5c-7.1,3.9-12.2,13.3-13.1,22.4c-0.5,6,0.9,12.1,3,17.5c0,0,0,0.1-0.1,0.1c-2.3,7.5-8.5,47.7-20.7,46
			c-11.8-1.7-9.5-58.9-6.6-75.3c1.2-6.8-13.9-6.4-16.8-1c-0.4,0.8-0.8,2.1-1.2,3.5c-8.1-11.6-24.3-14.5-33.8-4.6
			c-8.3,8.9-13.3,32.6-13.3,50.2c0,1.7,0.1,3.3,0.3,4.9c-1.9,9-5.3,18.9-12.1,18.8c-13.9-0.2-12-20.3-14.5-67.4
			c-0.4-8.1-3.5-13.7-15.3-11.8c-1.9,0.2-3.5,0.8-5,2.5c-6.6,6.6-14.9,35.9-17,62.6l-4.6-26.8c-1.7-9.3-3.1-16.2-4.4-20.5
			c-1.5-4.1-3.3-6.2-6-6.2c-0.8,0-1.7,0.2-2.5,0.6c-8.9,4.8-14.5,24.1-16.2,43.8c-2.3-10.2-3.3-18.7-3.3-25.3c0-6,2.3-18,2.3-17.2
			c0-2.5-6-3.5-7.5-3.5c-6,0-8.7,2.3-8.9,5c-1,3.9-1.5,8.5-1.5,13.9c0,3.8,0,8.1,0.2,12.8c-3,13.1-9,42.5-19.5,41.1
			c-11.8-1.7-9.5-58.9-6.6-75.3c1.2-6.8-13.9-6.4-16.8-1c-0.4,0.8-0.8,2.1-1.2,3.5c-8.1-11.6-24.3-14.5-33.8-4.6
			c-8.3,8.9-13.3,32.6-13.3,50.2c0,20.5,13.9,33.6,25.5,16.8c6.8-10,15.1-29.7,20.3-39.8c0,32.6,3.9,57.9,24.9,58.7
			c12.4,0.4,18.9-3.8,24.7-22.9c1.3,4.8,3.1,9.8,5.4,15c3.1,7.3,9.7,9.3,13.7,9.3c3.1,0,4.8-1.9,4.8-5c-0.6-10-0.8-16.8-0.8-20.7
			c0-4.8,0.2-8.1,0.4-10c0.8-8.9,5.4-36.5,8.7-35.7c1.7,0.2,8.9,47.7,11.4,70.7c0.2,2.1,5.6,3.7,10.4,3.7c2.7,0,3.3-1.7,3.9-5.6
			c-0.2-2.3-0.2-5.8-0.2-10.4c0-14.7,1.7-29.5,4.1-44.2c1-6,2.5-11.8,4.4-17.4c3.7-11.4,3.9-9.7,3.9-3.1c0,3.7-0.2,8.7-0.2,15.8
			c0,9.3,1,19.9,2.7,27c2.9,12.2,7.5,29.5,26.5,29c10-0.2,14.8-3.7,18.2-11.8c5.1,6.7,12.9,7.4,20-2.7c6.8-10,15.1-29.7,20.3-39.8
			c0,32.6,3.9,57.9,24.9,58.7c15.6,0.6,21.9-6.2,29.1-40.8c2.2,3.6,5.3,8.4,9.4,14.5l7.1,10.6c-12.7,12.7-15.6,12.9-16.4,21.6
			c-0.6,5.8,4.6,11.4,11.2,11.8c19.5,1.2,27-15.3,20.5-30.3c1.2-1.2,6.4-3.3,6.4-6.2l-0.4-1.7C454.6,370.2,453.5,369.4,452.3,369.4z
			 M133.1,363.6c-3.7,6-6.2,8.7-7.5,8.5c-2.1-0.6-3.1-4.1-3.1-11c0-16.6,6.6-42.9,13.3-48.1c1.9-1.9,3.9-2.7,6.2-2.7
			c4.4,0,8.5,4.1,10.4,11.4C149.1,333.1,140.4,351.8,133.1,363.6z M340.3,363.6c-3.7,6-6.2,8.7-7.5,8.5c-2.1-0.6-3.1-4.1-3.1-11
			c0-16.6,6.6-42.9,13.3-48.1c1.9-1.9,3.9-2.7,6.2-2.7c4.4,0,8.5,4.1,10.4,11.4C356.3,333.1,347.6,351.8,340.3,363.6z M437.6,391.6
			c-0.6,5.8-3.1,10.4-6.4,10c-2.9-0.2-4.1-1.5-4.1-3.3c0-2.9,3.7-7.3,10.2-12.9C437.6,387.2,437.8,389.3,437.6,391.6z"/>
		<path d="M498.6,313.2c-2.3-0.5-6.2-0.9-11.4-0.9c0.2-4.3,4.6-24,5.8-27c0.6-1.4-0.6-3.4-4.4-3.4c-2.3,0-8.7,1.1-9.5,3
			c-3.3,7.6-5.4,21.3-6,27.5c-3.1,0-6.4,0.2-10,0.7c-2.3,0.5-4.1,2-4.1,3.5l0.2,0.9c1.2,3,7.1,2,13.5,2v8.9c0,27.2,1.7,44.9,4.6,77
			c0.2,2.3,2.1,3.7,9.5,3.7c2.7,0,4.1-1.4,4.1-4.3v-0.5c-2.7-26.4-4.6-58.7-4.6-84.5c0-0.2,0.2-0.4,0.6-0.4c1.9,0,6,0.2,10.2,0.4
			c2.7,0,4.6-1.2,4.6-2.8C502,315.2,500.9,313.8,498.6,313.2z"/>
		<path d="M549.6,347.6c-2.7-0.2-5,0.4-5.4,3.5c-0.4,3.9-4.4,18.5-9.1,29c-4.8,10.6-6.8,11.8-10-4.6c-1.5-8.1-2.3-17.2-2.3-27.4
			c0-3.3,0-5.8,0.2-7.5c16-4.4,29-16.4,29-30.5c0-2.9-0.6-5.6-1.9-8.3c-2.3-4.1-6.2-6.4-10.6-6.4c-21.2,0-27,19.1-30.9,36.3
			c-2.7-0.6-8.9-0.4-8.9,3.3c0,6.2,4.4,4.1,7.7,5c-0.4,3.7-0.6,7.7-0.6,11.6c0,19.5-0.8,44.2,23.4,44.2c2.7,0,5.2-1.2,7.3-3.7
			c4.4-5.8,12.7-28.4,15.1-39.4C553.3,350.5,551.9,348.2,549.6,347.6z M530.9,312.4c2.7-5.8,5.2-8.7,7.9-8.7c1,0,1.9,0.4,2.9,1.5
			c1,1.5,1.7,3.1,1.7,5c0,2.7-0.8,5.4-2.5,8.5c-3.5,6.2-9.7,11.8-16.2,13.3C526.1,324.6,528.2,318.2,530.9,312.4z"/>
	</g>
	<g>
		<path class="st0" d="M268.8,257.9c-0.7-0.4-1.5-0.8-2.3-1.4c-0.4-0.3-0.8-0.6-1.2-0.8c-0.4-0.3-0.8-0.6-1.2-0.9
			c-0.4-0.3-0.8-0.7-1.2-1c-0.4-0.3-0.8-0.7-1.2-1.1c-0.4-0.4-0.8-0.7-1.2-1.1c-0.4-0.4-0.8-0.8-1.2-1.2c-0.4-0.4-0.8-0.8-1.1-1.2
			c-0.3-0.4-0.7-0.8-1.1-1.2c-0.7-0.8-1.4-1.7-2-2.4c-0.6-0.8-1.2-1.6-1.7-2.3c-0.5-0.8-1-1.5-1.4-2.2c-0.9-1.3-1.6-2.5-2.1-3.3
			c-0.5-0.8-0.8-1.3-0.8-1.3s0.3,0.4,0.9,1.2c0.6,0.8,1.4,1.8,2.4,3.1c0.5,0.6,1.1,1.2,1.7,1.9c0.6,0.7,1.2,1.4,1.9,2.1
			c0.7,0.7,1.4,1.4,2.2,2.2c0.4,0.4,0.8,0.7,1.2,1.1c0.4,0.3,0.8,0.7,1.2,1c0.4,0.3,0.8,0.7,1.2,1c0.4,0.3,0.8,0.6,1.2,0.9
			c0.4,0.3,0.9,0.6,1.3,0.9c0.4,0.3,0.8,0.6,1.2,0.8c0.4,0.2,0.8,0.5,1.2,0.7c0.4,0.2,0.8,0.4,1.2,0.6c-1.1-1.2-2.2-2.4-3.2-3.7
			c-0.6-0.6-1-1.2-1.3-1.9c-1.1-1.5-1.9-3.1-2.7-4.7c-5-8-8.2-15-10.1-21.4c0-0.1,0-0.1,0-0.1c-2.8-4.2-10.3-15-25.5-8
			c1.4,2.4,2.7,5.6,4.2,9c5.7,13.6,13.2,31.8,40,34.8C269,258.1,268.9,258,268.8,257.9z"/>
		<path class="st0" d="M288.2,213.5c1.7-2.8,3.5-5.5,5.2-8c3.6-5.3,7-10.3,8.6-15.1l1.4-4.1l1.4,4.1c1.6,4.8,5,9.7,8.6,15.1
			c1.7,2.6,3.5,5.2,5.2,8c0.3-3.6,0.9-8.5,2.3-13.6c2.1-18.7-7.7-34.6-18.9-38.9c-1.5,4.6-4.2,8.8-7.1,13.2
			c-4.6,7-9.5,15.9-9.1,25.8C287.4,205.1,287.9,209.8,288.2,213.5z"/>
		<path class="st0" d="M270.3,195.5l1.7-1.7l0.8,2.3c0.4,1.2,2.7,3.6,5,5.9c2.4,2.4,5.1,5.2,7.2,8.1c-1.4-11.5-6.6-29.9-25.4-35.4
			c-0.1,2.8-1.4,5.8-2.9,9.5c-4.2,9.8-10.1,24.1,0.5,46.9C255.7,218.3,260.6,205.1,270.3,195.5z"/>
		<path class="st0" d="M276.6,261.2v0.1c-16.4,0-27-4.8-34.4-11.5c-7-0.6-18,2.2-22.6,8.1c4.3,0.9,8.2,4.2,12.2,7.5
			c6.5,5.3,13.1,10.8,22.5,9.2c7.5-1.3,13-3.7,17.9-5.8c1.1-0.5,2.1-0.9,3.1-1.3c-0.2,0.1-0.4,0.1-0.6,0.1c-1.2,0.1-2.3,0.1-3.6,0.1
			h-1.8c-0.6,0-1.2-0.1-1.8-0.1c-0.6-0.1-1.2-0.1-1.8-0.1c-0.6,0-1.2-0.1-1.8-0.1c-1.2-0.1-2.4-0.2-3.6-0.4
			c-0.6-0.1-1.1-0.2-1.7-0.3c-0.6-0.1-1.1-0.2-1.6-0.3c-0.5-0.1-1-0.2-1.5-0.4c-0.5-0.2-0.9-0.3-1.4-0.4c-0.8-0.3-1.7-0.6-2.3-0.9
			c-0.7-0.3-1.3-0.6-1.8-0.8c-0.5-0.2-0.8-0.4-1.1-0.6c-0.3-0.2-0.4-0.2-0.4-0.2s0.1,0.1,0.4,0.2c0.3,0.1,0.7,0.3,1.2,0.4
			c0.5,0.2,1.1,0.4,1.8,0.6c0.7,0.2,1.5,0.4,2.4,0.6c0.4,0.1,0.9,0.2,1.4,0.3c0.5,0.1,1,0.2,1.5,0.2c0.6,0.1,1.1,0.1,1.6,0.2
			c0.6,0.1,1.1,0.1,1.7,0.1c1.2,0.1,2.3,0.1,3.5,0.1c0.6,0,1.2-0.1,1.8-0.1c0.6,0,1.2-0.1,1.8-0.1c0.6,0,1.2-0.1,1.8-0.1
			c0.6-0.1,1.2-0.2,1.8-0.2c1.2-0.1,2.3-0.3,3.4-0.4c1.1-0.2,2.2-0.4,3.2-0.6c1.1-0.2,2-0.4,2.9-0.6h0.1
			C279.2,262.8,277.9,262,276.6,261.2z"/>
		<path class="st0" d="M348,276.8c-5.8-1.4-10.4-3.3-14.6-5.2c-3.9-1.7-7.3-3.1-10.7-3.6c0.4,0.5,0.8,1.1,1.3,1.6
			c0.5,0.6,1,1.2,1.6,1.7c0.3,0.3,0.6,0.6,0.9,0.9c0.3,0.3,0.6,0.6,0.9,0.8c0.6,0.6,1.3,1.1,2,1.7c0.7,0.5,1.4,1.1,2.1,1.6
			c0.7,0.5,1.4,1,2.1,1.4c0.7,0.4,1.4,0.8,2.1,1.2c0.7,0.4,1.3,0.7,1.9,1c0.6,0.2,1.2,0.6,1.7,0.7c0.3,0.1,0.5,0.2,0.7,0.3
			c0.2,0.1,0.4,0.2,0.6,0.2c0.4,0.2,0.7,0.2,0.9,0.2c0.2,0.1,0.3,0.1,0.3,0.1s-0.1,0-0.3,0c-0.2-0.1-0.5-0.1-0.9-0.1
			c-0.2-0.1-0.4-0.1-0.7-0.1c-0.3-0.1-0.5-0.1-0.8-0.2c-0.6-0.1-1.1-0.3-1.8-0.5c-0.6-0.2-1.3-0.4-2.1-0.7c-0.7-0.3-1.5-0.6-2.3-0.9
			c-0.8-0.3-1.6-0.7-2.4-1.1c-0.8-0.4-1.6-0.8-2.4-1.3c-0.8-0.5-1.6-0.9-2.3-1.4c-0.4-0.3-0.7-0.6-1.1-0.8c-0.3-0.2-0.7-0.5-1.1-0.8
			c-0.7-0.6-1.4-1.1-2-1.6c-0.6-0.5-1.2-1.1-1.7-1.6c-0.5-0.4-0.9-1-1.3-1.4c-0.2-0.2-0.3-0.4-0.4-0.6c5.8,17,14,18.1,22.7,19.2
			c4,0.5,8.1,1,11.8,3.2C352.7,285.4,349.2,278.1,348,276.8z"/>
		<path class="st0" d="M364.5,250c-7.4,6.7-18.1,11.5-34.4,11.5v-0.1c-1.2,0.8-2.6,1.6-3.9,2.3c0.7,0.1,1.4,0.3,2.2,0.4
			c1,0.2,2.1,0.4,3.2,0.6c1.1,0.2,2.3,0.3,3.4,0.4c0.6,0.1,1.2,0.2,1.8,0.2c0.6,0,1.2,0.1,1.8,0.1c0.6,0.1,1.2,0.1,1.8,0.1
			s1.2,0.1,1.8,0.1c1.2,0,2.4,0,3.5-0.1c0.6,0,1.1-0.1,1.7-0.1s1.1-0.1,1.6-0.2c0.5-0.1,1-0.1,1.5-0.2c0.5-0.1,0.9-0.2,1.4-0.3
			c0.9-0.2,1.7-0.4,2.4-0.6c0.7-0.2,1.3-0.4,1.8-0.6c0.5-0.2,0.9-0.3,1.2-0.4c0.2-0.1,0.4-0.2,0.4-0.2s-0.1,0.1-0.4,0.2
			c-0.3,0.1-0.6,0.3-1.1,0.6c-0.5,0.2-1.1,0.5-1.8,0.8c-0.7,0.3-1.4,0.6-2.3,0.9c-0.4,0.2-0.9,0.3-1.4,0.4c-0.5,0.2-1,0.3-1.5,0.4
			c-0.5,0.1-1.1,0.2-1.6,0.3c-0.6,0.1-1.1,0.2-1.7,0.3c-1.2,0.2-2.3,0.3-3.6,0.4c-0.6,0.1-1.2,0.1-1.8,0.1s-1.2,0.1-1.8,0.1
			c-0.6,0-1.2,0.1-1.8,0.1H335c-1.2,0-2.4-0.1-3.6-0.1H331c1.2,0.4,2.4,1,3.6,1.5c4.9,2.1,10.5,4.4,17.9,5.7
			c9.3,1.6,16-3.9,22.5-9.2c4.1-3.3,8-6.6,12.2-7.5C382.6,252.1,371.6,249.4,364.5,250z"/>
		<path class="st0" d="M335.9,199.2c-1.1,1.4-2.7,3.1-4.6,5.1c-4.1,4.2-9.6,9.7-9.8,14.2c1.8,3.5,3.4,7.3,4.4,11.3
			c2.8-6,7.8-12.7,12.4-12.7h1.5v1.5c0,1.9,0.9,5.5,1.9,9.2c1.1,4.3,2.3,9,2.7,13.1c0.7-1.7,1.2-3.4,1.7-5.2
			C349.1,223,345.2,209.2,335.9,199.2z"/>
		<path class="st0" d="M314.5,268.7c-0.1,0.1-0.3,0.1-0.6,0l-0.1-0.1c-2.4,1.8-5.1,2.8-7.9,3.3c0,0.2-0.1,0.4-0.1,0.6
			c-0.1,0.7-0.3,1.4-0.5,2.2c-0.8,3-2.1,6.6-3,10.4c-0.4,1.9-0.8,3.8-0.9,5.6c-0.1,0.4-0.1,0.9-0.1,1.3v1.3c0.1,0.4,0.1,0.8,0.1,1.2
			c0.1,0.4,0.1,0.8,0.1,1.1c0.1,0.7,0.2,1.4,0.3,1.9c0.1,0.6,0.3,1.1,0.4,1.5c0.1,0.4,0.3,0.7,0.3,0.9c0.1,0.2,0.1,0.3,0.1,0.3
			s-0.1-0.1-0.2-0.3c-0.1-0.2-0.3-0.5-0.5-0.9c-0.2-0.4-0.4-0.9-0.7-1.4c-0.3-0.6-0.5-1.2-0.7-1.9c-0.1-0.3-0.2-0.7-0.3-1.1
			c-0.1-0.4-0.2-0.8-0.3-1.2c-0.1-0.4-0.2-0.9-0.2-1.3c-0.1-0.4-0.1-0.9-0.2-1.4c-0.2-1.9-0.2-3.9-0.1-6c0.2-4.1,0.8-8.1,1-10.8
			c0.1-0.7,0.1-1.3,0.1-1.8V272c-2.8-0.4-5.6-1.6-8.1-3.3c-0.3-0.1-0.7-0.2-1-0.3l0.2,0.1c-8.7,23.4-0.4,32.3,12.9,44.6
			c0.8-2.4,2.3-4.8,4.1-7.6C313.6,297.6,320.2,287,314.5,268.7z"/>
		<path class="st0" d="M287.3,270.4c-0.5,0.5-1.1,1.1-1.7,1.6c-0.6,0.6-1.3,1.1-2,1.6c-0.3,0.3-0.7,0.5-1.1,0.8
			c-0.3,0.3-0.7,0.5-1.1,0.8c-0.7,0.5-1.6,0.9-2.3,1.4c-0.8,0.4-1.6,0.9-2.4,1.3c-0.8,0.4-1.6,0.8-2.4,1.1c-0.8,0.3-1.6,0.7-2.3,0.9
			c-0.7,0.3-1.4,0.5-2.1,0.7c-0.7,0.2-1.2,0.4-1.8,0.5c-0.3,0.1-0.6,0.1-0.8,0.2c-0.3,0.1-0.4,0.1-0.7,0.1c-0.4,0.1-0.7,0.1-0.9,0.1
			s-0.3,0-0.3,0s0.1,0,0.3-0.1s0.5-0.1,0.9-0.2c0.2-0.1,0.4-0.2,0.6-0.2c0.2-0.1,0.4-0.2,0.7-0.3c0.5-0.2,1.1-0.4,1.7-0.7
			c0.6-0.3,1.2-0.6,1.9-1c0.7-0.4,1.3-0.8,2.1-1.2c0.7-0.4,1.4-0.9,2.1-1.4c0.7-0.5,1.4-1,2.1-1.6c0.7-0.6,1.4-1.1,2-1.7
			c0.3-0.3,0.6-0.6,0.9-0.8c0.3-0.3,0.6-0.6,0.9-0.9c0.6-0.6,1.1-1.2,1.6-1.7c0.5-0.6,0.9-1.1,1.3-1.6c0.1-0.1,0.2-0.2,0.2-0.3
			c-3.8,0.4-7.4,1.9-11.6,3.7c-4.2,1.8-8.7,3.7-14.5,5.1c-1.3,1.3-4.7,8.6-4.9,13.9c3.8-2.2,7.8-2.7,11.8-3.2
			c8.5-1.1,16.5-2.1,22.2-17.7C287.9,269.8,287.6,270.1,287.3,270.4z"/>
		<path class="st0" d="M275.6,204.1c-1.9-1.9-3.6-3.6-4.6-5.1c-9.3,10.1-13.2,23.8-10.2,36.4c0.4,1.8,1,3.6,1.7,5.2
			c0.4-4.1,1.6-8.7,2.7-13.1c1-3.7,1.9-7.3,1.9-9.2V217c0.1-0.1,0.2-0.2,0.3-0.3h1.2c4.5,0,9.6,6.8,12.4,12.8
			c1.1-3.9,2.6-7.7,4.4-11.2C285.3,214,279.7,208.3,275.6,204.1z"/>
		<circle class="st0" cx="303.4" cy="254.1" r="2.1"/>
		<path class="st0" d="M312.1,233c-2.4-8.3-6.7-15-8.7-17.9c-2.1,2.9-6.3,9.7-8.7,18c-3.6,12.2-1.9,22.7,5,31.5
			c-6.3-16,2.4-28.2,2.6-28.3l1.2-1.6l1.2,1.6c0.1,0.1,8.9,12.4,2.6,28.4C314.1,255.9,315.7,245.3,312.1,233z"/>
		<path class="st0" d="M334.2,196.3l0.8-2.3l1.7,1.7c9.7,9.6,14.5,22.9,13.2,35.5c10.6-22.8,4.7-37,0.5-46.9
			c-1.6-3.7-2.8-6.7-2.9-9.5c-18.9,5.5-24,23.9-25.4,35.4c2.1-2.9,4.8-5.7,7.2-8.1C331.4,199.8,333.8,197.4,334.2,196.3z"/>
		<path class="st0" d="M356.3,222.4C356.3,222.5,356.3,222.5,356.3,222.4c-1.9,6.4-5.1,13.5-10.1,21.4c-0.8,1.6-1.7,3.2-2.7,4.6
			c-0.3,0.7-0.8,1.4-1.3,1.9c-1,1.4-2.2,2.7-3.4,3.9c0.3-0.2,0.6-0.3,0.8-0.4c0.4-0.2,0.8-0.4,1.2-0.6c0.4-0.2,0.8-0.5,1.2-0.7
			c0.4-0.2,0.8-0.5,1.2-0.8c0.4-0.3,0.9-0.6,1.3-0.9c0.4-0.3,0.8-0.6,1.2-0.9c0.4-0.3,0.8-0.7,1.2-1c0.4-0.3,0.8-0.7,1.2-1
			c0.4-0.3,0.8-0.7,1.2-1.1c0.8-0.7,1.5-1.4,2.2-2.2c0.7-0.7,1.3-1.4,1.9-2.1c0.6-0.7,1.2-1.3,1.7-1.9c1-1.3,1.8-2.3,2.4-3.1
			c0.6-0.7,0.9-1.2,0.9-1.2s-0.3,0.5-0.8,1.3c-0.4,0.8-1.2,1.9-2.1,3.3c-0.4,0.7-0.9,1.4-1.4,2.2c-0.6,0.7-1.1,1.6-1.7,2.3
			c-0.6,0.8-1.3,1.6-2,2.4c-0.3,0.4-0.7,0.8-1.1,1.2c-0.3,0.4-0.7,0.8-1.1,1.2c-0.4,0.4-0.8,0.8-1.2,1.2c-0.4,0.4-0.8,0.7-1.2,1.1
			c-0.4,0.4-0.8,0.7-1.2,1.1c-0.4,0.3-0.8,0.7-1.2,1c-0.4,0.3-0.8,0.6-1.2,0.9c-0.4,0.3-0.8,0.6-1.2,0.8c-0.8,0.6-1.6,1-2.3,1.4
			c-0.2,0.1-0.4,0.2-0.6,0.3c26.5-3,34-21.1,39.7-34.7c1.4-3.4,2.7-6.5,4.2-9C366.6,207.4,359.1,218.2,356.3,222.4z"/>
		<path class="st0" d="M333.5,245.3c-0.1,1-0.2,2.1-0.4,3.2c-0.1,0.6-0.2,1.1-0.4,1.7c-0.1,0.6-0.3,1.1-0.5,1.7
			c-0.1,0.3-0.2,0.6-0.3,0.8l-0.3,0.8c-0.2,0.6-0.4,1.2-0.7,1.7c-0.3,0.6-0.6,1.1-0.8,1.6c-0.3,0.5-0.7,1-1,1.6
			c-0.1,0.2-0.2,0.3-0.3,0.4c5.1-3.3,9.1-7.3,12.2-11.7c1.6-4-0.5-12.3-2.1-18.7c-0.8-3.1-1.5-6-1.8-8.1c-3.6,1.8-8.6,9.6-10,15.1
			c0.8,7.8-1.3,19-6.8,27.1c0.1,0,0.1,0,0.1,0c0.2-0.1,0.4-0.2,0.6-0.3c0.2-0.1,0.4-0.2,0.6-0.4c0.4-0.2,0.8-0.5,1.2-0.8
			c0.2-0.1,0.4-0.3,0.6-0.4c0.2-0.2,0.4-0.3,0.6-0.4c0.4-0.3,0.8-0.6,1.2-0.9c0.4-0.3,0.7-0.7,1.1-1.1c0.4-0.4,0.8-0.7,1.1-1.2
			c0.3-0.4,0.7-0.8,1.1-1.3c0.3-0.4,0.6-0.9,0.9-1.4c0.3-0.4,0.6-0.9,0.8-1.4l0.4-0.7c0.1-0.3,0.2-0.5,0.3-0.8
			c0.2-0.5,0.4-1,0.6-1.6c0.2-0.5,0.3-1.1,0.5-1.6c0.3-1.1,0.6-2.1,0.7-3c0.2-0.9,0.3-1.9,0.5-2.8c0.2-1.7,0.4-3.2,0.5-4.2
			c0.1-1,0.2-1.6,0.2-1.6s0,0.6,0,1.6c0,1,0.1,2.5,0,4.2C333.6,243.3,333.6,244.3,333.5,245.3z"/>
		<path class="st0" d="M273.4,236.5c0,0,0.1,0.6,0.2,1.6c0.1,1,0.2,2.4,0.5,4.2c0.2,0.8,0.3,1.8,0.5,2.8c0.2,1,0.4,2,0.7,3
			c0.2,0.5,0.3,1,0.5,1.6c0.2,0.5,0.4,1,0.6,1.6c0.1,0.3,0.2,0.5,0.3,0.8l0.4,0.7c0.3,0.5,0.5,1,0.8,1.4c0.3,0.4,0.6,0.9,0.9,1.4
			c0.3,0.4,0.7,0.8,1.1,1.3c0.3,0.4,0.7,0.8,1.1,1.2c0.4,0.4,0.7,0.8,1.1,1.1c0.4,0.3,0.8,0.7,1.2,0.9c0.2,0.2,0.4,0.3,0.6,0.4
			c0.2,0.2,0.4,0.3,0.6,0.4c0.4,0.3,0.8,0.5,1.2,0.8c0.2,0.1,0.4,0.2,0.6,0.4c0.1,0.1,0.2,0.1,0.3,0.2c-5.5-8.1-7.6-19.2-6.7-27.1
			c-1.4-5.5-6.5-13.3-10-15.1c-0.3,2.2-1,5-1.8,8.1c-1.6,6.3-3.8,14.7-2.1,18.7c3.1,4.5,7.2,8.5,12.3,11.8c-0.1-0.1-0.2-0.3-0.3-0.4
			c-0.3-0.5-0.7-1-1-1.6c-0.3-0.6-0.6-1.1-0.8-1.6c-0.3-0.6-0.5-1.1-0.7-1.7l-0.3-0.8c-0.1-0.3-0.2-0.6-0.3-0.8
			c-0.2-0.6-0.4-1.1-0.5-1.7c-0.1-0.6-0.2-1.1-0.4-1.7c-0.2-1.1-0.3-2.2-0.4-3.2c-0.1-1-0.1-1.9-0.2-2.8c-0.1-1.8,0-3.2,0-4.2
			C273.4,237.1,273.4,236.5,273.4,236.5z"/>
		<path class="st0" d="M301.7,260.8c0,1,0.7,1.7,1.7,1.7s1.7-0.7,1.7-1.7c0-1-0.7-1.7-1.7-1.7S301.7,259.8,301.7,260.8z"/>
		<path class="st0" d="M324,235.4c-1.3-10.8-7.5-20.1-13-28.3c-2.8-4.3-5.6-8.3-7.5-12.3c-1.9,4-4.7,8.1-7.6,12.3
			c-5.6,8.1-11.8,17.4-13.1,28.2c-0.9,8.2,1.6,20.5,8.3,28c2.4,2.8,5.2,4.6,8.2,5.4c-9-9.9-11.6-22.4-7.5-36.5
			c3.4-11.7,10.1-20.2,10.4-20.5l1.2-1.4l1.2,1.4c0.3,0.4,7,8.8,10.4,20.5c4.2,14.1,1.6,26.7-7.5,36.5c3-0.8,5.7-2.7,8.2-5.3
			C322.4,255.9,324.9,243.7,324,235.4z"/>
		<path class="st0" d="M305.2,246.7c0-1-0.8-1.8-1.8-1.8c-1,0-1.8,0.8-1.8,1.8s0.8,1.8,1.8,1.8C304.4,248.5,305.2,247.7,305.2,246.7
			z"/>
	</g>
	<circle class="st0" cx="133.8" cy="249.8" r="5.8"/>
	<circle class="st0" cx="164.3" cy="249.8" r="5.8"/>
	<circle class="st0" cx="194.8" cy="249.8" r="5.8"/>
	<circle class="st0" cx="401.8" cy="249.8" r="5.8"/>
	<circle class="st0" cx="432.3" cy="249.8" r="5.8"/>
	<circle class="st0" cx="462.8" cy="249.8" r="5.8"/>
</g>
</svg>
